# This file uses centimeters as units for non-parametric coordinates.

mtllib justLights.mtl
g default
v 4.796401 -1.030527 -0.295191
v 4.862817 -1.030527 -0.295191
v 4.796401 -1.030527 -0.361609
vt 0.000000 0.000000
vt 1.000000 0.000000
vt 0.000000 1.000000
vn 0.000000 1.000000 0.000000
vn 0.000000 1.000000 0.000000
vn 0.000000 1.000000 0.000000
s off
g pPlane1
usemtl initialShadingGroup
f 1/1/1 2/2/2 3/3/3
g default
v 2.240956 -3.578656 -4.362790
v 2.307372 -3.578656 -4.362790
v 2.240956 -3.578656 -4.429207
vt 0.000000 0.000000
vt 1.000000 0.000000
vt 0.000000 1.000000
vn 0.000000 1.000000 0.000000
vn 0.000000 1.000000 0.000000
vn 0.000000 1.000000 0.000000
s off
g pPlane2
usemtl initialShadingGroup
f 4/4/4 5/5/5 6/6/6
g default
v 0.007322 7.950035 0.643670
v 0.073737 7.950035 0.643670
v 0.007322 7.950035 0.577253
vt 0.000000 0.000000
vt 1.000000 0.000000
vt 0.000000 1.000000
vn 0.000000 1.000000 0.000000
vn 0.000000 1.000000 0.000000
vn 0.000000 1.000000 0.000000
s off
g pPlane3
usemtl initialShadingGroup
f 7/7/7 8/8/8 9/9/9
g default
v -0.212859 3.777953 -4.566902
v -0.146444 3.777953 -4.566902
v -0.212859 3.777953 -4.633320
vt 0.000000 0.000000
vt 1.000000 0.000000
vt 0.000000 1.000000
vn 0.000000 1.000000 0.000000
vn 0.000000 1.000000 0.000000
vn 0.000000 1.000000 0.000000
s off
g pPlane4
usemtl initialShadingGroup
f 10/10/10 11/11/11 12/12/12
g default
v -0.212859 3.777953 -4.533786
v -0.146444 3.777953 -4.533786
v -0.212859 3.777953 -4.600204
vt 0.000000 0.000000
vt 1.000000 0.000000
vt 0.000000 1.000000
vn 0.000000 1.000000 0.000000
vn 0.000000 1.000000 0.000000
vn 0.000000 1.000000 0.000000
s off
g pPlane5
usemtl initialShadingGroup
f 13/13/13 14/14/14 15/15/15
g default
v -0.038326 4.304053 12.315537
v 0.028089 4.304053 12.315537
v -0.038326 4.304053 12.249120
vt 0.000000 0.000000
vt 1.000000 0.000000
vt 0.000000 1.000000
vn 0.000000 1.000000 0.000000
vn 0.000000 1.000000 0.000000
vn 0.000000 1.000000 0.000000
s off
g pPlane6
usemtl initialShadingGroup
f 16/16/16 17/17/17 18/18/18
g default
v -0.038326 -3.035059 -7.500230
v 0.028089 -3.035059 -7.500230
v -0.038326 -3.035059 -7.566648
vt 0.000000 0.000000
vt 1.000000 0.000000
vt 0.000000 1.000000
vn 0.000000 1.000000 0.000000
vn 0.000000 1.000000 0.000000
vn 0.000000 1.000000 0.000000
s off
g pPlane7
usemtl initialShadingGroup
f 19/19/19 20/20/20 21/21/21
g default
v -14.849568 -1.030527 -0.295191
v -14.783153 -1.030527 -0.295191
v -14.849568 -1.030527 -0.361609
vt 0.000000 0.000000
vt 1.000000 0.000000
vt 0.000000 1.000000
vn 0.000000 1.000000 0.000000
vn 0.000000 1.000000 0.000000
vn 0.000000 1.000000 0.000000
s off
g pPlane8
usemtl initialShadingGroup
f 22/22/22 23/23/23 24/24/24
g default
v -17.405013 -3.578656 -4.362790
v -17.338598 -3.578656 -4.362790
v -17.405013 -3.578656 -4.429207
vt 0.000000 0.000000
vt 1.000000 0.000000
vt 0.000000 1.000000
vn 0.000000 1.000000 0.000000
vn 0.000000 1.000000 0.000000
vn 0.000000 1.000000 0.000000
s off
g pPlane9
usemtl initialShadingGroup
f 25/25/25 26/26/26 27/27/27
g default
v -19.638648 7.950035 0.643670
v -19.572232 7.950035 0.643670
v -19.638648 7.950035 0.577253
vt 0.000000 0.000000
vt 1.000000 0.000000
vt 0.000000 1.000000
vn 0.000000 1.000000 0.000000
vn 0.000000 1.000000 0.000000
vn 0.000000 1.000000 0.000000
s off
g pPlane10
usemtl initialShadingGroup
f 28/28/28 29/29/29 30/30/30
g default
v -19.858829 3.777953 -4.566902
v -19.792414 3.777953 -4.566902
v -19.858829 3.777953 -4.633320
vt 0.000000 0.000000
vt 1.000000 0.000000
vt 0.000000 1.000000
vn 0.000000 1.000000 0.000000
vn 0.000000 1.000000 0.000000
vn 0.000000 1.000000 0.000000
s off
g pPlane11
usemtl initialShadingGroup
f 31/31/31 32/32/32 33/33/33
g default
v -19.858829 3.777953 -4.533786
v -19.792414 3.777953 -4.533786
v -19.858829 3.777953 -4.600204
vt 0.000000 0.000000
vt 1.000000 0.000000
vt 0.000000 1.000000
vn 0.000000 1.000000 0.000000
vn 0.000000 1.000000 0.000000
vn 0.000000 1.000000 0.000000
s off
g pPlane12
usemtl initialShadingGroup
f 34/34/34 35/35/35 36/36/36
g default
v -19.684296 4.304053 12.315537
v -19.617881 4.304053 12.315537
v -19.684296 4.304053 12.249120
vt 0.000000 0.000000
vt 1.000000 0.000000
vt 0.000000 1.000000
vn 0.000000 1.000000 0.000000
vn 0.000000 1.000000 0.000000
vn 0.000000 1.000000 0.000000
s off
g pPlane13
usemtl initialShadingGroup
f 37/37/37 38/38/38 39/39/39
g default
v -19.684296 -3.035059 -7.500230
v -19.617881 -3.035059 -7.500230
v -19.684296 -3.035059 -7.566648
vt 0.000000 0.000000
vt 1.000000 0.000000
vt 0.000000 1.000000
vn 0.000000 1.000000 0.000000
vn 0.000000 1.000000 0.000000
vn 0.000000 1.000000 0.000000
s off
g pPlane14
usemtl initialShadingGroup
f 40/40/40 41/41/41 42/42/42
g default
v -64.933537 15.047456 -0.295191
v -64.867122 15.047456 -0.295191
v -64.933537 15.047456 -0.361609
vt 0.000000 0.000000
vt 1.000000 0.000000
vt 0.000000 1.000000
vn 0.000000 1.000000 0.000000
vn 0.000000 1.000000 0.000000
vn 0.000000 1.000000 0.000000
s off
g pPlane15
usemtl initialShadingGroup
f 43/43/43 44/44/44 45/45/45
g default
v -67.488982 12.499327 -4.362790
v -67.422567 12.499327 -4.362790
v -67.488982 12.499327 -4.429207
vt 0.000000 0.000000
vt 1.000000 0.000000
vt 0.000000 1.000000
vn 0.000000 1.000000 0.000000
vn 0.000000 1.000000 0.000000
vn 0.000000 1.000000 0.000000
s off
g pPlane16
usemtl initialShadingGroup
f 46/46/46 47/47/47 48/48/48
g default
v -69.722617 24.028018 0.643670
v -69.656202 24.028018 0.643670
v -69.722617 24.028018 0.577253
vt 0.000000 0.000000
vt 1.000000 0.000000
vt 0.000000 1.000000
vn 0.000000 1.000000 0.000000
vn 0.000000 1.000000 0.000000
vn 0.000000 1.000000 0.000000
s off
g pPlane17
usemtl initialShadingGroup
f 49/49/49 50/50/50 51/51/51
g default
v -69.942798 19.855936 -4.566902
v -69.876383 19.855936 -4.566902
v -69.942798 19.855936 -4.633320
vt 0.000000 0.000000
vt 1.000000 0.000000
vt 0.000000 1.000000
vn 0.000000 1.000000 0.000000
vn 0.000000 1.000000 0.000000
vn 0.000000 1.000000 0.000000
s off
g pPlane18
usemtl initialShadingGroup
f 52/52/52 53/53/53 54/54/54
g default
v -69.942798 19.855936 -4.533786
v -69.876383 19.855936 -4.533786
v -69.942798 19.855936 -4.600204
vt 0.000000 0.000000
vt 1.000000 0.000000
vt 0.000000 1.000000
vn 0.000000 1.000000 0.000000
vn 0.000000 1.000000 0.000000
vn 0.000000 1.000000 0.000000
s off
g pPlane19
usemtl initialShadingGroup
f 55/55/55 56/56/56 57/57/57
g default
v -69.768265 20.382036 12.315537
v -69.701850 20.382036 12.315537
v -69.768265 20.382036 12.249120
vt 0.000000 0.000000
vt 1.000000 0.000000
vt 0.000000 1.000000
vn 0.000000 1.000000 0.000000
vn 0.000000 1.000000 0.000000
vn 0.000000 1.000000 0.000000
s off
g pPlane20
usemtl initialShadingGroup
f 58/58/58 59/59/59 60/60/60
g default
v -69.768265 13.042924 -7.500230
v -69.701850 13.042924 -7.500230
v -69.768265 13.042924 -7.566648
vt 0.000000 0.000000
vt 1.000000 0.000000
vt 0.000000 1.000000
vn 0.000000 1.000000 0.000000
vn 0.000000 1.000000 0.000000
vn 0.000000 1.000000 0.000000
s off
g pPlane21
usemtl initialShadingGroup
f 61/61/61 62/62/62 63/63/63
g default
v -86.077255 15.047456 -0.295191
v -86.010840 15.047456 -0.295191
v -86.077255 15.047456 -0.361609
vt 0.000000 0.000000
vt 1.000000 0.000000
vt 0.000000 1.000000
vn 0.000000 1.000000 0.000000
vn 0.000000 1.000000 0.000000
vn 0.000000 1.000000 0.000000
s off
g pPlane22
usemtl initialShadingGroup
f 64/64/64 65/65/65 66/66/66
g default
v -88.632700 12.499327 -4.362790
v -88.566285 12.499327 -4.362790
v -88.632700 12.499327 -4.429207
vt 0.000000 0.000000
vt 1.000000 0.000000
vt 0.000000 1.000000
vn 0.000000 1.000000 0.000000
vn 0.000000 1.000000 0.000000
vn 0.000000 1.000000 0.000000
s off
g pPlane23
usemtl initialShadingGroup
f 67/67/67 68/68/68 69/69/69
g default
v -90.866335 24.028018 0.643670
v -90.799919 24.028018 0.643670
v -90.866335 24.028018 0.577253
vt 0.000000 0.000000
vt 1.000000 0.000000
vt 0.000000 1.000000
vn 0.000000 1.000000 0.000000
vn 0.000000 1.000000 0.000000
vn 0.000000 1.000000 0.000000
s off
g pPlane24
usemtl initialShadingGroup
f 70/70/70 71/71/71 72/72/72
g default
v -91.086516 19.855936 -4.566902
v -91.020100 19.855936 -4.566902
v -91.086516 19.855936 -4.633320
vt 0.000000 0.000000
vt 1.000000 0.000000
vt 0.000000 1.000000
vn 0.000000 1.000000 0.000000
vn 0.000000 1.000000 0.000000
vn 0.000000 1.000000 0.000000
s off
g pPlane25
usemtl initialShadingGroup
f 73/73/73 74/74/74 75/75/75
g default
v -91.086516 19.855936 -4.533786
v -91.020100 19.855936 -4.533786
v -91.086516 19.855936 -4.600204
vt 0.000000 0.000000
vt 1.000000 0.000000
vt 0.000000 1.000000
vn 0.000000 1.000000 0.000000
vn 0.000000 1.000000 0.000000
vn 0.000000 1.000000 0.000000
s off
g pPlane26
usemtl initialShadingGroup
f 76/76/76 77/77/77 78/78/78
g default
v -90.911983 20.382036 12.315537
v -90.845567 20.382036 12.315537
v -90.911983 20.382036 12.249120
vt 0.000000 0.000000
vt 1.000000 0.000000
vt 0.000000 1.000000
vn 0.000000 1.000000 0.000000
vn 0.000000 1.000000 0.000000
vn 0.000000 1.000000 0.000000
s off
g pPlane27
usemtl initialShadingGroup
f 79/79/79 80/80/80 81/81/81
g default
v -90.911983 13.042924 -7.500230
v -90.845567 13.042924 -7.500230
v -90.911983 13.042924 -7.566648
vt 0.000000 0.000000
vt 1.000000 0.000000
vt 0.000000 1.000000
vn 0.000000 1.000000 0.000000
vn 0.000000 1.000000 0.000000
vn 0.000000 1.000000 0.000000
s off
g pPlane28
usemtl initialShadingGroup
f 82/82/82 83/83/83 84/84/84
g default
v -75.826663 -10.324352 -0.295191
v -75.760248 -10.324352 -0.295191
v -75.826663 -10.324352 -0.361609
vt 0.000000 0.000000
vt 1.000000 0.000000
vt 0.000000 1.000000
vn 0.000000 1.000000 0.000000
vn 0.000000 1.000000 0.000000
vn 0.000000 1.000000 0.000000
s off
g pPlane29
usemtl initialShadingGroup
f 85/85/85 86/86/86 87/87/87
g default
v -78.382108 -12.872480 -4.362790
v -78.315693 -12.872480 -4.362790
v -78.382108 -12.872480 -4.429207
vt 0.000000 0.000000
vt 1.000000 0.000000
vt 0.000000 1.000000
vn 0.000000 1.000000 0.000000
vn 0.000000 1.000000 0.000000
vn 0.000000 1.000000 0.000000
s off
g pPlane30
usemtl initialShadingGroup
f 88/88/88 89/89/89 90/90/90
g default
v -80.615743 -1.343790 0.643670
v -80.549328 -1.343790 0.643670
v -80.615743 -1.343790 0.577253
vt 0.000000 0.000000
vt 1.000000 0.000000
vt 0.000000 1.000000
vn 0.000000 1.000000 0.000000
vn 0.000000 1.000000 0.000000
vn 0.000000 1.000000 0.000000
s off
g pPlane31
usemtl initialShadingGroup
f 91/91/91 92/92/92 93/93/93
g default
v -80.835924 -5.515871 -4.566902
v -80.769509 -5.515871 -4.566902
v -80.835924 -5.515871 -4.633320
vt 0.000000 0.000000
vt 1.000000 0.000000
vt 0.000000 1.000000
vn 0.000000 1.000000 0.000000
vn 0.000000 1.000000 0.000000
vn 0.000000 1.000000 0.000000
s off
g pPlane32
usemtl initialShadingGroup
f 94/94/94 95/95/95 96/96/96
g default
v -80.835924 -5.515871 -4.533786
v -80.769509 -5.515871 -4.533786
v -80.835924 -5.515871 -4.600204
vt 0.000000 0.000000
vt 1.000000 0.000000
vt 0.000000 1.000000
vn 0.000000 1.000000 0.000000
vn 0.000000 1.000000 0.000000
vn 0.000000 1.000000 0.000000
s off
g pPlane33
usemtl initialShadingGroup
f 97/97/97 98/98/98 99/99/99
g default
v -80.661391 -4.989771 12.315537
v -80.594976 -4.989771 12.315537
v -80.661391 -4.989771 12.249120
vt 0.000000 0.000000
vt 1.000000 0.000000
vt 0.000000 1.000000
vn 0.000000 1.000000 0.000000
vn 0.000000 1.000000 0.000000
vn 0.000000 1.000000 0.000000
s off
g pPlane34
usemtl initialShadingGroup
f 100/100/100 101/101/101 102/102/102
g default
v -80.661391 -12.328884 -7.500230
v -80.594976 -12.328884 -7.500230
v -80.661391 -12.328884 -7.566648
vt 0.000000 0.000000
vt 1.000000 0.000000
vt 0.000000 1.000000
vn 0.000000 1.000000 0.000000
vn 0.000000 1.000000 0.000000
vn 0.000000 1.000000 0.000000
s off
g pPlane35
usemtl initialShadingGroup
f 103/103/103 104/104/104 105/105/105
g default
v -132.305968 -10.883622 -0.295191
v -132.239552 -10.883622 -0.295191
v -132.305968 -10.883622 -0.361609
vt 0.000000 0.000000
vt 1.000000 0.000000
vt 0.000000 1.000000
vn 0.000000 1.000000 0.000000
vn 0.000000 1.000000 0.000000
vn 0.000000 1.000000 0.000000
s off
g pPlane36
usemtl initialShadingGroup
f 106/106/106 107/107/107 108/108/108
g default
v -134.861413 -13.431750 -4.362790
v -134.794997 -13.431750 -4.362790
v -134.861413 -13.431750 -4.429207
vt 0.000000 0.000000
vt 1.000000 0.000000
vt 0.000000 1.000000
vn 0.000000 1.000000 0.000000
vn 0.000000 1.000000 0.000000
vn 0.000000 1.000000 0.000000
s off
g pPlane37
usemtl initialShadingGroup
f 109/109/109 110/110/110 111/111/111
g default
v -137.095047 -1.903059 0.643670
v -137.028632 -1.903059 0.643670
v -137.095047 -1.903059 0.577253
vt 0.000000 0.000000
vt 1.000000 0.000000
vt 0.000000 1.000000
vn 0.000000 1.000000 0.000000
vn 0.000000 1.000000 0.000000
vn 0.000000 1.000000 0.000000
s off
g pPlane38
usemtl initialShadingGroup
f 112/112/112 113/113/113 114/114/114
g default
v -137.315228 -6.075141 -4.566902
v -137.248813 -6.075141 -4.566902
v -137.315228 -6.075141 -4.633320
vt 0.000000 0.000000
vt 1.000000 0.000000
vt 0.000000 1.000000
vn 0.000000 1.000000 0.000000
vn 0.000000 1.000000 0.000000
vn 0.000000 1.000000 0.000000
s off
g pPlane39
usemtl initialShadingGroup
f 115/115/115 116/116/116 117/117/117
g default
v -137.315228 -6.075141 -4.533786
v -137.248813 -6.075141 -4.533786
v -137.315228 -6.075141 -4.600204
vt 0.000000 0.000000
vt 1.000000 0.000000
vt 0.000000 1.000000
vn 0.000000 1.000000 0.000000
vn 0.000000 1.000000 0.000000
vn 0.000000 1.000000 0.000000
s off
g pPlane40
usemtl initialShadingGroup
f 118/118/118 119/119/119 120/120/120
g default
v -137.140695 -5.549041 12.315537
v -137.074280 -5.549041 12.315537
v -137.140695 -5.549041 12.249120
vt 0.000000 0.000000
vt 1.000000 0.000000
vt 0.000000 1.000000
vn 0.000000 1.000000 0.000000
vn 0.000000 1.000000 0.000000
vn 0.000000 1.000000 0.000000
s off
g pPlane41
usemtl initialShadingGroup
f 121/121/121 122/122/122 123/123/123
g default
v -137.140695 -12.888153 -7.500230
v -137.074280 -12.888153 -7.500230
v -137.140695 -12.888153 -7.566648
vt 0.000000 0.000000
vt 1.000000 0.000000
vt 0.000000 1.000000
vn 0.000000 1.000000 0.000000
vn 0.000000 1.000000 0.000000
vn 0.000000 1.000000 0.000000
s off
g pPlane42
usemtl initialShadingGroup
f 124/124/124 125/125/125 126/126/126
