# This file uses centimeters as units for non-parametric coordinates.

mtllib MediumStone.mtl
g default
v -1.926222 1.723053 5.640263
v -0.561074 1.723053 6.163031
v -1.843310 3.105645 5.672013
v -0.684999 3.222427 6.115575
v -1.546480 3.105645 4.896876
v -0.388170 3.222427 5.340438
v -1.629392 1.723053 4.865126
v -0.264244 1.723053 5.387894
v -0.747494 3.476491 5.202839
v -0.689848 1.723053 5.088879
v -1.073870 1.723053 6.091706
v -1.044324 3.476491 5.977976
v -1.400226 3.476491 5.841687
v -1.103396 3.476491 5.066550
v -1.067561 1.723053 4.944238
v -1.451582 1.723053 5.947066
v -1.310161 3.476491 4.987372
v -1.286997 1.723053 4.860208
v -1.671018 1.723053 5.863035
v -1.606991 3.476491 5.762509
v -0.303658 2.726997 5.372801
v -0.721321 2.726997 5.134490
v -1.077223 2.726997 4.998202
v -1.283988 2.726997 4.919023
v -1.589978 2.726997 4.880219
v -1.886808 2.726997 5.655356
v -1.622578 2.726997 5.803213
v -1.415813 2.726997 5.882392
v -1.059911 2.726997 6.018680
v -0.600488 2.726997 6.147937
v -0.264244 2.204491 5.387894
v -0.689848 2.204491 5.088879
v -1.067561 2.204491 4.944238
v -1.286997 2.204491 4.860208
v -1.629392 2.204491 4.865126
v -1.886808 2.204491 5.655356
v -1.622578 2.204491 5.803213
v -1.415813 2.204491 5.882392
v -1.047696 2.204491 6.023358
v -0.561074 2.204491 6.163031
v -0.552290 3.249118 5.884702
v -0.936725 3.520937 5.737486
v -1.317499 3.520937 5.591673
v -1.538713 3.520937 5.506962
v -1.791547 3.124175 5.410142
v -1.838085 2.719066 5.392321
v -1.852002 2.160044 5.386991
v -1.854803 1.723053 5.374275
v -1.531293 1.723053 5.498159
v -1.311857 1.723053 5.582190
v -0.934145 1.723053 5.726831
v -0.400123 1.723053 5.931328
v -0.419703 2.160044 5.935474
v -0.461872 2.719066 5.919326
v -0.433222 3.249118 5.573770
v -0.817657 3.520937 5.426554
v -1.198431 3.520937 5.280741
v -1.419645 3.520937 5.196030
v -1.672479 3.124175 5.099210
v -1.719017 2.719066 5.081389
v -1.748745 2.160044 5.070005
v -1.743512 1.723053 5.083653
v -1.420002 1.723053 5.207537
v -1.200567 1.723053 5.291568
v -0.822854 1.723053 5.436208
v -0.288833 1.723053 5.640706
v -0.300636 2.160044 5.624542
v -0.342804 2.719066 5.608394
vt 0.375000 0.000000
vt 0.625000 0.000000
vt 0.375000 0.250000
vt 0.625000 0.250000
vt 0.375000 0.500000
vt 0.625000 0.500000
vt 0.375000 0.750000
vt 0.625000 0.750000
vt 0.375000 1.000000
vt 0.625000 1.000000
vt 0.875000 0.000000
vt 0.875000 0.250000
vt 0.125000 0.000000
vt 0.125000 0.250000
vt 0.538739 0.500000
vt 0.538739 0.750000
vt 0.538739 0.000000
vt 0.538739 1.000000
vt 0.538739 0.250000
vt 0.469569 0.250000
vt 0.469569 0.500000
vt 0.469569 0.750000
vt 0.469569 0.000000
vt 0.469569 1.000000
vt 0.429383 0.500000
vt 0.429383 0.750000
vt 0.429383 0.000000
vt 0.429383 1.000000
vt 0.429383 0.250000
vt 0.625000 0.589149
vt 0.875000 0.160851
vt 0.538739 0.589149
vt 0.469569 0.589149
vt 0.429383 0.589149
vt 0.125000 0.160851
vt 0.375000 0.589149
vt 0.375000 0.160851
vt 0.429383 0.160851
vt 0.469569 0.160851
vt 0.538739 0.160851
vt 0.625000 0.160851
vt 0.625000 0.672864
vt 0.875000 0.077136
vt 0.538739 0.672864
vt 0.469569 0.672864
vt 0.429383 0.672864
vt 0.125000 0.077136
vt 0.375000 0.672864
vt 0.375000 0.077136
vt 0.429383 0.077136
vt 0.469569 0.077136
vt 0.538739 0.077136
vt 0.625000 0.077136
vt 0.625000 0.332509
vt 0.707509 0.250000
vt 0.538739 0.332509
vt 0.469569 0.332509
vt 0.429383 0.332509
vt 0.292491 0.250000
vt 0.375000 0.332509
vt 0.292491 0.160851
vt 0.292491 0.077136
vt 0.292491 0.000000
vt 0.375000 0.917491
vt 0.429383 0.917491
vt 0.469569 0.917491
vt 0.538739 0.917491
vt 0.625000 0.917491
vt 0.707509 0.000000
vt 0.707509 0.077136
vt 0.707509 0.160851
vt 0.625000 0.426241
vt 0.801241 0.250000
vt 0.538739 0.426241
vt 0.469569 0.426241
vt 0.429383 0.426241
vt 0.198759 0.250000
vt 0.375000 0.426241
vt 0.198759 0.160851
vt 0.198759 0.077136
vt 0.198759 0.000000
vt 0.375000 0.823758
vt 0.429383 0.823758
vt 0.469569 0.823758
vt 0.538739 0.823758
vt 0.625000 0.823758
vt 0.801241 0.000000
vt 0.801241 0.077136
vt 0.801241 0.160851
vn -0.488311 0.007057 0.872641
vn -0.419036 0.026327 0.907588
vn -0.446194 0.049511 0.893566
vn -0.382791 0.058035 0.922010
vn -0.626902 0.778436 -0.032107
vn -0.602458 0.785761 -0.140088
vn -0.822953 0.554540 -0.123429
vn -0.797261 0.561881 -0.220601
vn 0.311591 0.097081 -0.945244
vn 0.251007 0.094965 -0.963316
vn 0.200477 0.081876 -0.976271
vn 0.085799 0.057271 -0.994665
vn 0.000000 -1.000000 -0.000000
vn 0.000000 -1.000000 -0.000000
vn 0.000000 -1.000000 -0.000000
vn 0.000000 -1.000000 0.000000
vn 0.895972 0.128824 0.425015
vn 0.889778 0.179199 0.419741
vn 0.849908 0.129185 0.510850
vn 0.844293 0.177060 0.505785
vn -0.959269 0.063445 -0.275276
vn -0.981631 0.052544 -0.183414
vn -0.951711 0.121729 -0.281829
vn -0.975493 0.120171 -0.184317
vn 0.379978 0.097156 -0.919879
vn 0.444483 0.072269 -0.892867
vn 0.416791 0.091893 -0.904346
vn 0.521377 0.044442 -0.852168
vn 0.000000 -1.000000 -0.000000
vn 0.000000 -1.000000 -0.000000
vn 0.000000 -1.000000 -0.000000
vn 0.000000 -1.000000 -0.000000
vn -0.342574 0.058050 0.937696
vn -0.320589 0.027092 0.946831
vn -0.303271 0.043324 0.951919
vn -0.272390 0.009939 0.962136
vn 0.221324 0.936471 0.272099
vn 0.446801 0.822509 0.351919
vn 0.264429 0.946802 0.183420
vn 0.486732 0.832210 0.265553
vn -0.059577 0.986025 0.155578
vn -0.026139 0.997325 0.068259
vn 0.355844 0.099383 -0.929246
vn 0.355922 0.097188 -0.929448
vn 0.000000 -1.000000 -0.000000
vn 0.000000 -1.000000 -0.000000
vn -0.357011 0.058057 0.932294
vn -0.357405 0.034246 0.933321
vn 0.470157 0.041408 -0.881611
vn 0.574842 0.009996 -0.818204
vn 0.357114 0.052904 -0.932561
vn 0.156323 0.039968 -0.986897
vn -0.014360 0.015223 -0.999781
vn -0.966976 0.033329 -0.252678
vn -0.987748 0.045701 -0.149218
vn -0.530479 0.050349 0.846201
vn -0.432291 0.075423 0.898575
vn -0.356647 0.073516 0.931342
vn -0.288033 0.057446 0.955896
vn -0.275884 0.003516 0.961184
vn 0.896478 0.056124 0.439518
vn 0.852451 0.044382 0.520920
vn 0.483450 0.000000 -0.875372
vn 0.574870 0.000000 -0.818245
vn 0.357615 0.000000 -0.933869
vn 0.139436 0.000000 -0.990231
vn -0.014362 0.000000 -0.999897
vn -0.954714 0.006790 -0.297447
vn -0.979543 0.054015 -0.193852
vn -0.657316 0.030206 0.753010
vn -0.497407 0.109841 0.860535
vn -0.353553 0.150294 0.923262
vn -0.235926 0.149151 0.960257
vn -0.212608 0.067901 0.974776
vn 0.889132 0.035511 0.456271
vn 0.837021 0.014053 0.546989
vn 0.320563 0.946518 0.036662
vn 0.540719 0.831989 0.124165
vn 0.027400 0.997060 -0.071552
vn -0.540404 0.785438 -0.301747
vn -0.739071 0.561704 -0.371836
vn -0.904312 0.082419 -0.418840
vn -0.894964 0.121693 -0.429221
vn -0.918109 0.026990 -0.395407
vn -0.914812 -0.023547 -0.403194
vn -0.000000 -1.000000 0.000000
vn -0.000000 -1.000000 0.000000
vn -0.000000 -1.000000 0.000000
vn -0.000000 -1.000000 0.000000
vn -0.000000 -1.000000 0.000000
vn 0.962147 0.056204 0.266672
vn 0.968491 0.035278 0.246536
vn 0.951759 0.128765 0.278520
vn 0.943532 0.179152 0.278661
vn 0.352314 0.932884 -0.074844
vn 0.572924 0.819434 0.016884
vn 0.066729 0.982437 -0.174256
vn -0.476265 0.775194 -0.415024
vn -0.684069 0.552211 -0.476563
vn -0.839495 0.096817 -0.534673
vn -0.837807 0.119679 -0.532688
vn -0.860547 0.037005 -0.508024
vn -0.875009 -0.012087 -0.483957
vn 0.000000 -1.000000 0.000000
vn -0.000000 -1.000000 0.000000
vn -0.000000 -1.000000 0.000000
vn -0.000000 -1.000000 0.000000
vn -0.000000 -1.000000 0.000000
vn 0.992020 0.014808 0.125208
vn 0.986112 0.044521 0.160005
vn 0.977540 0.128857 0.166765
vn 0.970031 0.176386 0.167117
s 1
g Stone:WoodenPost:pCube4
usemtl initialShadingGroup
f 26/37/1 27/38/2 3/3/3
f 3/3/3 27/38/2 20/29/4
s 2
f 20/29/5 44/58/6 3/3/7
f 3/3/7 44/58/6 45/60/8
s 3
f 17/25/9 24/34/10 5/5/11
f 5/5/11 24/34/10 25/36/12
s 4
f 48/64/13 49/65/14 1/9/15
f 1/9/15 49/65/14 19/28/16
s 5
f 54/71/17 41/55/18 30/41/19
f 30/41/19 41/55/18 4/4/20
s 6
f 46/61/21 26/37/22 45/59/23
f 45/59/23 26/37/22 3/3/24
s 3
f 9/15/25 6/6/26 22/32/27
f 22/32/27 6/6/26 21/30/28
s 4
f 11/18/29 51/67/30 2/10/31
f 2/10/31 51/67/30 52/68/32
s 1
f 12/19/33 29/40/34 4/4/35
f 4/4/35 29/40/34 30/41/36
s 2
f 12/19/37 4/4/38 42/56/39
f 42/56/39 4/4/38 41/54/40
f 13/20/41 12/19/37 43/57/42
f 43/57/42 12/19/37 42/56/39
s 3
f 23/33/43 14/21/44 22/32/27
f 22/32/27 14/21/44 9/15/25
s 4
f 16/24/45 50/66/46 11/18/29
f 11/18/29 50/66/46 51/67/30
s 1
f 13/20/47 28/39/48 12/19/33
f 12/19/33 28/39/48 29/40/34
s 3
f 17/25/9 14/21/44 24/34/10
f 24/34/10 14/21/44 23/33/43
s 4
f 19/28/16 49/65/14 16/24/45
f 16/24/45 49/65/14 50/66/46
s 1
f 20/29/4 27/38/2 13/20/47
f 13/20/47 27/38/2 28/39/48
s 2
f 44/58/6 20/29/5 43/57/42
f 43/57/42 20/29/5 13/20/41
s 3
f 22/32/27 21/30/28 32/44/49
f 32/44/49 21/30/28 31/42/50
f 23/33/43 22/32/27 33/45/51
f 33/45/51 22/32/27 32/44/49
f 23/33/43 33/45/51 24/34/10
f 24/34/10 33/45/51 34/46/52
f 24/34/10 34/46/52 25/36/12
f 25/36/12 34/46/52 35/48/53
s 6
f 47/62/54 36/49/55 46/61/21
f 46/61/21 36/49/55 26/37/22
s 1
f 36/49/56 37/50/57 26/37/1
f 26/37/1 37/50/57 27/38/2
f 28/39/48 27/38/2 38/51/58
f 38/51/58 27/38/2 37/50/57
f 28/39/48 38/51/58 29/40/34
f 29/40/34 38/51/58 39/52/59
f 29/40/34 39/52/59 30/41/36
f 30/41/36 39/52/59 40/53/60
s 5
f 53/70/61 54/71/17 40/53/62
f 40/53/62 54/71/17 30/41/19
s 3
f 32/44/49 31/42/50 10/16/63
f 10/16/63 31/42/50 8/8/64
f 15/22/65 33/45/51 10/16/63
f 10/16/63 33/45/51 32/44/49
f 34/46/52 33/45/51 18/26/66
f 18/26/66 33/45/51 15/22/65
f 35/48/53 34/46/52 7/7/67
f 7/7/67 34/46/52 18/26/66
s 6
f 48/63/68 1/1/69 47/62/54
f 47/62/54 1/1/69 36/49/55
s 1
f 1/1/70 19/27/71 36/49/56
f 36/49/56 19/27/71 37/50/57
f 38/51/58 37/50/57 16/23/72
f 16/23/72 37/50/57 19/27/71
f 39/52/59 38/51/58 11/17/73
f 11/17/73 38/51/58 16/23/72
f 40/53/60 39/52/59 2/2/74
f 2/2/74 39/52/59 11/17/73
s 5
f 52/69/75 53/70/61 2/2/76
f 2/2/76 53/70/61 40/53/62
s 2
f 56/74/77 42/56/39 55/72/78
f 55/72/78 42/56/39 41/54/40
f 43/57/42 42/56/39 57/75/79
f 57/75/79 42/56/39 56/74/77
f 58/76/80 44/58/6 57/75/79
f 57/75/79 44/58/6 43/57/42
f 45/60/8 44/58/6 59/78/81
f 59/78/81 44/58/6 58/76/80
s 6
f 60/79/82 46/61/21 59/77/83
f 59/77/83 46/61/21 45/59/23
f 61/80/84 47/62/54 60/79/82
f 60/79/82 47/62/54 46/61/21
f 62/81/85 48/63/68 61/80/84
f 61/80/84 48/63/68 47/62/54
s 4
f 62/82/86 63/83/87 48/64/13
f 48/64/13 63/83/87 49/65/14
f 50/66/46 49/65/14 64/84/88
f 64/84/88 49/65/14 63/83/87
f 51/67/30 50/66/46 65/85/89
f 65/85/89 50/66/46 64/84/88
f 52/68/32 51/67/30 66/86/90
f 66/86/90 51/67/30 65/85/89
s 5
f 53/70/61 52/69/75 67/88/91
f 67/88/91 52/69/75 66/87/92
f 54/71/17 53/70/61 68/89/93
f 68/89/93 53/70/61 67/88/91
f 41/55/18 54/71/17 55/73/94
f 55/73/94 54/71/17 68/89/93
s 2
f 9/15/95 56/74/77 6/6/96
f 6/6/96 56/74/77 55/72/78
f 56/74/77 9/15/95 57/75/79
f 57/75/79 9/15/95 14/21/97
f 58/76/80 57/75/79 17/25/98
f 17/25/98 57/75/79 14/21/97
f 59/78/81 58/76/80 5/5/99
f 5/5/99 58/76/80 17/25/98
s 6
f 60/79/82 59/77/83 25/35/100
f 25/35/100 59/77/83 5/14/101
f 61/80/84 60/79/82 35/47/102
f 35/47/102 60/79/82 25/35/100
f 62/81/85 61/80/84 7/13/103
f 7/13/103 61/80/84 35/47/102
s 4
f 18/26/104 63/83/87 7/7/105
f 7/7/105 63/83/87 62/82/86
f 64/84/88 63/83/87 15/22/106
f 15/22/106 63/83/87 18/26/104
f 65/85/89 64/84/88 10/16/107
f 10/16/107 64/84/88 15/22/106
f 66/86/90 65/85/89 8/8/108
f 8/8/108 65/85/89 10/16/107
s 5
f 66/87/92 8/11/109 67/88/91
f 67/88/91 8/11/109 31/43/110
f 67/88/91 31/43/110 68/89/93
f 68/89/93 31/43/110 21/31/111
f 68/89/93 21/31/111 55/73/94
f 55/73/94 21/31/111 6/12/112
