# This file uses centimeters as units for non-parametric coordinates.

mtllib Stone.mtl
g default
v -0.830989 1.044402 3.364194
v 0.534159 1.044402 3.886962
v -0.748077 2.516630 3.395944
v 0.410234 2.640984 3.839506
v -0.451247 2.516630 2.620808
v 0.707063 2.640984 3.064370
v -0.534159 1.044402 2.589057
v 0.830989 1.044402 3.111825
v 0.347739 2.911520 2.926770
v 0.405385 1.044402 2.812811
v 0.021363 1.044402 3.815638
v 0.050909 2.911520 3.701907
v -0.304993 2.911520 3.565618
v -0.008163 2.911520 2.790482
v 0.027672 1.044402 2.668170
v -0.356349 1.044402 3.670997
v -0.214928 2.911520 2.711303
v -0.191763 1.044402 2.584139
v -0.575785 1.044402 3.586967
v -0.511758 2.911520 3.486440
v 0.791575 2.113434 3.096732
v 0.373912 2.113434 2.858422
v 0.018010 2.113434 2.722133
v -0.188755 2.113434 2.642955
v -0.494745 2.113434 2.604151
v -0.791575 2.113434 3.379287
v -0.527345 2.113434 3.527145
v -0.320580 2.113434 3.606323
v 0.035322 2.113434 3.742612
v 0.494745 2.113434 3.871869
v 0.830989 1.557052 3.111825
v 0.405385 1.557052 2.812811
v 0.027672 1.557052 2.668170
v -0.191763 1.557052 2.584139
v -0.534159 1.557052 2.589057
v -0.791575 1.557052 3.379287
v -0.527345 1.557052 3.527145
v -0.320580 1.557052 3.606323
v 0.047537 1.557052 3.747289
v 0.534159 1.557052 3.886962
v 0.542944 2.669405 3.608633
v 0.158508 2.958848 3.461418
v -0.222266 2.958848 3.315605
v -0.443480 2.958848 3.230893
v -0.696314 2.536362 3.134073
v -0.742852 2.104989 3.116252
v -0.756769 1.509724 3.110923
v -0.759569 1.044402 3.098206
v -0.436060 1.044402 3.222091
v -0.216624 1.044402 3.306121
v 0.161088 1.044402 3.450762
v 0.695110 1.044402 3.655259
v 0.675530 1.509724 3.659405
v 0.633361 2.104989 3.643257
v 0.662012 2.669405 3.297701
v 0.277576 2.958848 3.150486
v -0.103198 2.958848 3.004673
v -0.324412 2.958848 2.919961
v -0.577246 2.536362 2.823141
v -0.623784 2.104989 2.805320
v -0.653512 1.509724 2.793936
v -0.648279 1.044402 2.807584
v -0.324769 1.044402 2.931469
v -0.105333 1.044402 3.015499
v 0.272379 1.044402 3.160140
v 0.806401 1.044402 3.364637
v 0.794598 1.509724 3.348473
v 0.752429 2.104989 3.332325
vt 0.375000 0.000000
vt 0.625000 0.000000
vt 0.375000 0.250000
vt 0.625000 0.250000
vt 0.375000 0.500000
vt 0.625000 0.500000
vt 0.375000 0.750000
vt 0.625000 0.750000
vt 0.375000 1.000000
vt 0.625000 1.000000
vt 0.875000 0.000000
vt 0.875000 0.250000
vt 0.125000 0.000000
vt 0.125000 0.250000
vt 0.538739 0.500000
vt 0.538739 0.750000
vt 0.538739 0.000000
vt 0.538739 1.000000
vt 0.538739 0.250000
vt 0.469569 0.250000
vt 0.469569 0.500000
vt 0.469569 0.750000
vt 0.469569 0.000000
vt 0.469569 1.000000
vt 0.429383 0.500000
vt 0.429383 0.750000
vt 0.429383 0.000000
vt 0.429383 1.000000
vt 0.429383 0.250000
vt 0.625000 0.589149
vt 0.875000 0.160851
vt 0.538739 0.589149
vt 0.469569 0.589149
vt 0.429383 0.589149
vt 0.125000 0.160851
vt 0.375000 0.589149
vt 0.375000 0.160851
vt 0.429383 0.160851
vt 0.469569 0.160851
vt 0.538739 0.160851
vt 0.625000 0.160851
vt 0.625000 0.672864
vt 0.875000 0.077136
vt 0.538739 0.672864
vt 0.469569 0.672864
vt 0.429383 0.672864
vt 0.125000 0.077136
vt 0.375000 0.672864
vt 0.375000 0.077136
vt 0.429383 0.077136
vt 0.469569 0.077136
vt 0.538739 0.077136
vt 0.625000 0.077136
vt 0.625000 0.332509
vt 0.707509 0.250000
vt 0.538739 0.332509
vt 0.469569 0.332509
vt 0.429383 0.332509
vt 0.292491 0.250000
vt 0.375000 0.332509
vt 0.292491 0.160851
vt 0.292491 0.077136
vt 0.292491 0.000000
vt 0.375000 0.917491
vt 0.429383 0.917491
vt 0.469569 0.917491
vt 0.538739 0.917491
vt 0.625000 0.917491
vt 0.707509 0.000000
vt 0.707509 0.077136
vt 0.707509 0.160851
vt 0.625000 0.426241
vt 0.801241 0.250000
vt 0.538739 0.426241
vt 0.469569 0.426241
vt 0.429383 0.426241
vt 0.198759 0.250000
vt 0.375000 0.426241
vt 0.198759 0.160851
vt 0.198759 0.077136
vt 0.198759 0.000000
vt 0.375000 0.823758
vt 0.429383 0.823758
vt 0.469569 0.823758
vt 0.538739 0.823758
vt 0.625000 0.823758
vt 0.801241 0.000000
vt 0.801241 0.077136
vt 0.801241 0.160851
vn -0.473005 0.018842 0.880858
vn -0.418329 0.025640 0.907933
vn -0.385032 0.050578 0.921516
vn -0.455255 0.040197 0.889453
vn -0.838311 0.530496 -0.125732
vn -0.654107 0.755600 -0.034827
vn -0.627745 0.764427 -0.146926
vn -0.812107 0.537853 -0.226265
vn 0.185186 0.066707 -0.980437
vn 0.308264 0.084564 -0.947535
vn 0.230890 0.079440 -0.969732
vn 0.111132 0.065456 -0.991648
vn 0.000000 -1.000000 -0.000000
vn 0.000000 -1.000000 -0.000000
vn 0.000000 -1.000000 -0.000000
vn 0.000000 -1.000000 -0.000000
vn 0.850820 0.120605 0.511429
vn 0.897167 0.120760 0.424863
vn 0.891463 0.168608 0.420553
vn 0.845860 0.166589 0.506724
vn -0.961394 0.063933 -0.267645
vn -0.984093 0.055617 -0.168724
vn -0.976326 0.112950 -0.184474
vn -0.952476 0.114419 -0.282309
vn 0.393250 0.080213 -0.915926
vn 0.452060 0.061901 -0.889837
vn 0.498667 0.059445 -0.864753
vn 0.428777 0.076363 -0.900177
vn 0.000000 -1.000000 -0.000000
vn 0.000000 -1.000000 -0.000000
vn 0.000000 -1.000000 -0.000000
vn 0.000000 -1.000000 -0.000000
vn -0.335049 0.047918 0.940981
vn -0.321369 0.026245 0.946590
vn -0.284998 0.019330 0.958333
vn -0.298590 0.037040 0.953662
vn 0.281890 0.939608 0.194102
vn 0.238220 0.927199 0.289055
vn 0.465790 0.805259 0.366876
vn 0.508517 0.815687 0.275801
vn -0.063322 0.984199 0.165358
vn -0.027714 0.996993 0.072372
vn 0.356051 0.093424 -0.929785
vn 0.356120 0.091322 -0.929967
vn 0.000000 -1.000000 -0.000000
vn 0.000000 -1.000000 -0.000000
vn -0.357082 0.054533 0.932480
vn -0.357431 0.032021 0.933390
vn 0.556158 0.028493 -0.830588
vn 0.471292 0.038035 -0.881157
vn 0.357176 0.049514 -0.932724
vn 0.160198 0.039470 -0.986295
vn 0.018564 0.031831 -0.999321
vn -0.964474 0.025561 -0.262939
vn -0.984192 0.027898 -0.174892
vn -0.535569 0.043303 0.843380
vn -0.461390 0.054482 0.885523
vn -0.356750 0.069502 0.931611
vn -0.291456 0.051292 0.955208
vn -0.239718 0.037697 0.970110
vn 0.846590 0.048329 0.530047
vn 0.896773 0.052480 0.439368
vn 0.574870 0.000000 -0.818245
vn 0.483450 0.000000 -0.875372
vn 0.357615 0.000000 -0.933869
vn 0.139436 0.000000 -0.990231
vn -0.014362 0.000000 -0.999897
vn -0.961907 0.020347 -0.272619
vn -0.978862 0.047907 -0.198833
vn -0.578728 0.084972 0.811082
vn -0.487077 0.109855 0.866423
vn -0.354025 0.141332 0.924495
vn -0.274646 0.103133 0.955998
vn -0.206055 0.070323 0.976010
vn 0.835864 0.014409 0.548748
vn 0.893966 0.026340 0.447360
vn 0.340755 0.939293 0.040176
vn 0.563769 0.815465 0.131079
vn 0.029084 0.996688 -0.075948
vn -0.563704 0.764083 -0.313711
vn -0.753932 0.537688 -0.377463
vn -0.905032 0.076582 -0.418393
vn -0.895812 0.114385 -0.429460
vn -0.913546 0.023370 -0.406063
vn -0.917096 -0.006502 -0.398614
vn -0.000000 -1.000000 0.000000
vn -0.000000 -1.000000 0.000000
vn -0.000000 -1.000000 0.000000
vn -0.000000 -1.000000 0.000000
vn -0.000000 -1.000000 0.000000
vn 0.965410 0.026803 0.259356
vn 0.962121 0.052677 0.267484
vn 0.952549 0.120704 0.279431
vn 0.945362 0.168563 0.279066
vn 0.376700 0.923117 -0.077146
vn 0.597080 0.801989 0.017596
vn 0.070891 0.980155 -0.185123
vn -0.498088 0.751911 -0.431900
vn -0.696726 0.528184 -0.485381
vn -0.848295 0.084524 -0.522734
vn -0.838516 0.112487 -0.533140
vn -0.864474 0.031123 -0.501713
vn -0.875094 -0.011434 -0.483818
vn -0.000000 -1.000000 0.000000
vn -0.000000 -1.000000 0.000000
vn -0.000000 -1.000000 0.000000
vn -0.000000 -1.000000 0.000000
vn -0.000000 -1.000000 0.000000
vn 0.992063 0.014038 0.124955
vn 0.987763 0.048152 0.148346
vn 0.978612 0.120243 0.166915
vn 0.971817 0.165952 0.167425
s 1
g WoodenPost:pCube4
usemtl initialShadingGroup
f 26/37/1 27/38/2 20/29/3 3/3/4
s 2
f 3/3/5 20/29/6 44/58/7 45/60/8
s 3
f 5/5/9 17/25/10 24/34/11 25/36/12
s 4
f 48/64/13 49/65/14 19/28/15 1/9/16
s 5
f 30/41/17 54/71/18 41/55/19 4/4/20
s 6
f 46/61/21 26/37/22 3/3/23 45/59/24
s 3
f 9/15/25 6/6/26 21/30/27 22/32/28
s 4
f 11/18/29 51/67/30 52/68/31 2/10/32
s 1
f 12/19/33 29/40/34 30/41/35 4/4/36
s 2
f 42/56/37 12/19/38 4/4/39 41/54/40
f 13/20/41 12/19/38 42/56/37 43/57/42
s 3
f 23/33/43 14/21/44 9/15/25 22/32/28
s 4
f 16/24/45 50/66/46 51/67/30 11/18/29
s 1
f 13/20/47 28/39/48 29/40/34 12/19/33
s 3
f 17/25/10 14/21/44 23/33/43 24/34/11
s 4
f 19/28/15 49/65/14 50/66/46 16/24/45
s 1
f 20/29/3 27/38/2 28/39/48 13/20/47
s 2
f 44/58/7 20/29/6 13/20/41 43/57/42
s 3
f 22/32/28 21/30/27 31/42/49 32/44/50
f 33/45/51 23/33/43 22/32/28 32/44/50
f 24/34/11 23/33/43 33/45/51 34/46/52
f 25/36/12 24/34/11 34/46/52 35/48/53
s 6
f 47/62/54 36/49/55 26/37/22 46/61/21
s 1
f 36/49/56 37/50/57 27/38/2 26/37/1
f 28/39/48 27/38/2 37/50/57 38/51/58
f 29/40/34 28/39/48 38/51/58 39/52/59
f 30/41/35 29/40/34 39/52/59 40/53/60
s 5
f 40/53/61 53/70/62 54/71/18 30/41/17
s 3
f 32/44/50 31/42/49 8/8/63 10/16/64
f 15/22/65 33/45/51 32/44/50 10/16/64
f 34/46/52 33/45/51 15/22/65 18/26/66
f 35/48/53 34/46/52 18/26/66 7/7/67
s 6
f 48/63/68 1/1/69 36/49/55 47/62/54
s 1
f 1/1/70 19/27/71 37/50/57 36/49/56
f 38/51/58 37/50/57 19/27/71 16/23/72
f 39/52/59 38/51/58 16/23/72 11/17/73
f 40/53/60 39/52/59 11/17/73 2/2/74
s 5
f 2/2/75 52/69/76 53/70/62 40/53/61
s 2
f 56/74/77 42/56/37 41/54/40 55/72/78
f 43/57/42 42/56/37 56/74/77 57/75/79
f 58/76/80 44/58/7 43/57/42 57/75/79
f 45/60/8 44/58/7 58/76/80 59/78/81
s 6
f 60/79/82 46/61/21 45/59/24 59/77/83
f 61/80/84 47/62/54 46/61/21 60/79/82
f 62/81/85 48/63/68 47/62/54 61/80/84
s 4
f 62/82/86 63/83/87 49/65/14 48/64/13
f 50/66/46 49/65/14 63/83/87 64/84/88
f 51/67/30 50/66/46 64/84/88 65/85/89
f 52/68/31 51/67/30 65/85/89 66/86/90
s 5
f 53/70/62 52/69/76 66/87/91 67/88/92
f 54/71/18 53/70/62 67/88/92 68/89/93
f 41/55/19 54/71/18 68/89/93 55/73/94
s 2
f 9/15/95 56/74/77 55/72/78 6/6/96
f 57/75/79 56/74/77 9/15/95 14/21/97
f 17/25/98 58/76/80 57/75/79 14/21/97
f 59/78/81 58/76/80 17/25/98 5/5/99
s 6
f 25/35/100 60/79/82 59/77/83 5/14/101
f 35/47/102 61/80/84 60/79/82 25/35/100
f 7/13/103 62/81/85 61/80/84 35/47/102
s 4
f 7/7/104 18/26/105 63/83/87 62/82/86
f 64/84/88 63/83/87 18/26/105 15/22/106
f 65/85/89 64/84/88 15/22/106 10/16/107
f 66/86/90 65/85/89 10/16/107 8/8/108
s 5
f 67/88/92 66/87/91 8/11/109 31/43/110
f 68/89/93 67/88/92 31/43/110 21/31/111
f 55/73/94 68/89/93 21/31/111 6/12/112
