# This file uses centimeters as units for non-parametric coordinates.

mtllib TestLights.mtl
g default
v -0.093662 3.000000 0.093662
v 0.093662 3.000000 0.093662
v 0.093662 3.000000 -0.093662
vt 0.000000 0.000000
vt 1.000000 0.000000
vt 1.000000 1.000000
vn 0.000000 1.000000 0.000000
vn 0.000000 1.000000 0.000000
vn 0.000000 1.000000 0.000000
s off
g pPlane1
usemtl initialShadingGroup
f 3/3/1 1/1/2 2/2/3
g default
v 0.906338 3.000000 -0.093662
v 1.093662 3.000000 -0.093662
v 1.093662 3.000000 0.093662
vt 0.000000 0.000000
vt 1.000000 0.000000
vt 1.000000 1.000000
vn 0.000000 -1.000000 -0.000000
vn 0.000000 -1.000000 -0.000000
vn 0.000000 -1.000000 -0.000000
s off
g pPlane2
usemtl initialShadingGroup
f 6/6/4 4/4/5 5/5/6
